<svg width="206" height="70" viewBox="0 0 206 70" fill="none" xmlns="http://www.w3.org/2000/svg">
<path d="M1 1H69V69H1V1Z" stroke="#A4D6CF" stroke-width="2"/>
<path d="M137 1H205V69H137V1Z" stroke="#A4D6CF" stroke-width="2"/>
<path d="M176.061 36.0607C176.646 35.4749 176.646 34.5251 176.061 33.9393L166.515 24.3934C165.929 23.8076 164.979 23.8076 164.393 24.3934C163.808 24.9792 163.808 25.9289 164.393 26.5147L172.879 35L164.393 43.4853C163.808 44.0711 163.808 45.0208 164.393 45.6066C164.979 46.1924 165.929 46.1924 166.515 45.6066L176.061 36.0607ZM171 36.5H175V33.5H171V36.5Z" fill="#177165"/>
<path d="M29.9393 33.9393C29.3536 34.5251 29.3536 35.4749 29.9393 36.0607L39.4853 45.6066C40.0711 46.1924 41.0208 46.1924 41.6066 45.6066C42.1924 45.0208 42.1924 44.0711 41.6066 43.4853L33.1213 35L41.6066 26.5147C42.1924 25.9289 42.1924 24.9792 41.6066 24.3934C41.0208 23.8076 40.0711 23.8076 39.4853 24.3934L29.9393 33.9393ZM35 33.5L31 33.5L31 36.5L35 36.5L35 33.5Z" fill="#177165"/>
</svg>
