<svg width="7" height="9" viewBox="0 0 7 9" fill="none" xmlns="http://www.w3.org/2000/svg">
<path d="M3.61146 3.96999L0.919165 0.219741C0.70883 -0.073247 0.368087 -0.073247 0.157751 0.219741C-0.0525838 0.512729 -0.0525838 0.987369 0.157751 1.28036L2.4706 4.49971L0.158593 7.72023C-0.0517424 8.01322 -0.0517424 8.48786 0.158593 8.78084C0.263424 8.92734 0.401067 9 0.538879 9C0.676691 9 0.814502 8.92675 0.919502 8.78026L3.61179 5.03001C3.82179 4.73644 3.82179 4.26297 3.61146 3.96999ZM6.84221 3.96999L4.14991 0.219741C3.93958 -0.073247 3.59884 -0.073247 3.3885 0.219741C3.17817 0.512729 3.17817 0.987369 3.3885 1.28036L5.70135 4.49971L3.38934 7.72023C3.17901 8.01322 3.17901 8.48786 3.38934 8.78084C3.49367 8.92734 3.63165 9 3.76963 9C3.90761 9 4.04525 8.92675 4.15025 8.78026L6.84254 5.03001C7.05254 4.73644 7.05254 4.26297 6.84221 3.96999Z" fill="white"/>
</svg>
